<svg xmlns="http://www.w3.org/2000/svg" width="350" height="411" fill="none" viewBox="0 0 600 601"><path fill="#48AF48" stroke="#48AF48" d="M172.852 593.124C421.869 598.115 509.248 462.116 594.449 1c-166.445 366.284-249.2 563.342-421.597 592.124Z"/><path fill="#12633A" d="M480.898 4.806c-122.256 10.51-212.86 32.16-288.863 69.022-52.947 25.678-57.91 29.45-61.148 46.45-7.473 39.228 8.832 56.389 20.225 21.289 7.298-22.484 20.422-40.956 15.008-21.122-14.512 53.172-6.96 63.327 15.492 20.833 16.3-30.845 17.196-30.072 6.261 5.417-9.346 30.344-1.315 42.777 13.462 20.833 4.867-7.233 13.35-18.283 18.854-24.561 7.941-9.056 7.433-5.984-2.47 14.855-16.299 34.3-9.013 40.311 15.149 12.495 22.52-25.928 25.65-21.917 5.589 7.161-19.943 28.911-9.34 36.039 19.564 13.161 26.44-20.933 30.405-15.694 5.742 7.583-9.306 8.784-16.92 18-16.92 20.484 0 7.844 13.581 4.672 28.2-6.595 22.869-17.622 26.304-12.666 5.724 8.25-21.059 21.4-19.176 30.6 4.36 21.35 34.358-13.5 38.638-14.128 24.059-3.522-7.585 5.517-19.006 14.595-25.379 20.161-11.5 10.056-11.455 10.111 5.335 7.078 9.306-1.678 23.265-4.567 31.02-6.422 10.304-2.467 8.177.111-7.913 9.589-12.109 7.127-21.511 15.461-20.902 18.516.61 3.056 13.057 5.034 27.653 4.395l26.541-1.161-16.92 7.855c-9.305 4.317-20.089 7.967-23.969 8.106-3.875.139-7.05 2.616-7.05 5.516 0 2.895 13.327 6.112 29.609 7.15l29.61 1.884-23.191 4.55c-45.87 8.994-47.922 25.328-3.266 25.983 19.971.295 23.693 1.561 15.177 5.167-6.204 2.628-19.531 4.95-29.609 5.166-27.004.573-22.289 10.234 7.117 14.578 13.998 2.067 27.015 6.25 28.921 9.295 2.256 3.589-6.858 4.133-25.977 1.544-26.344-3.572-29.248-2.95-27.511 5.861 1.167 5.917 11.657 13.05 26.259 17.839 30.89 10.139 27.664 13.828-6.57 7.528-35.695-6.567-39.13 2.306-6.418 16.561 30.229 13.172 30.291 20.378.095 10.567-11.195-3.639-24.454-5.067-29.468-3.172-7.129 2.694-4.004 7.15 14.337 20.433 12.892 9.339 23.445 17.983 23.445 19.211 0 1.222-11.365-3.217-25.256-9.867-32.728-15.661-39.129-8.827-12.21 13.028 24.471 19.867 23.586 28.272-1.151 10.922-15.836-11.111-34.702-15.65-34.702-8.35 0 1.85 7.828 13.1 17.393 25 21.032 26.156 18.059 27.567-8.927 4.228-25.91-22.411-31.228-16.839-11.686 12.245 19.852 29.555 15.216 34-7.338 7.044-12.667-15.133-19.203-19.233-23.665-14.839-4.466 4.4-2.893 12.4 5.68 28.961 14.432 27.861 8.014 30.123-9.577 3.373-7.01-10.662-15.256-19.378-18.329-19.378-7.135 0-7.157-.222 2.932 27.944 11.59 32.372 6.086 34.656-9.136 3.789-13.666-27.705-30.083-30.933-24.201-4.767 8.364 37.212 6.661 35.817 39.225 32.05 35.486-4.111 103.74-27.411 132.289-45.166 56.675-35.239 100.948-113.45 133.513-235.856 14.545-54.667 14.726-54.983 24.951-42.922 6.097 7.2 10.372 9.189 10.485 4.878.101-4 2.357-5.95 5.013-4.334 2.651 1.617 3.627-3.239 2.161-10.783-1.659-8.545-.063-13.722 4.235-13.722 4.061 0 5.454-3.728 3.384-9.039-1.94-4.967-.784-12.284 2.56-16.256 3.345-3.967 5.522-10.528 4.845-14.572-.677-4.045.231-11.106 2.025-15.689 1.793-4.583 9.847-32.083 17.901-61.111S589.764 26.683 600 6.061L594.457 1l-45.503.933c-25.024.517-55.648 1.806-68.056 2.873Zm-368.38 114.066c-7.749 7.634-9.069 37.684-1.658 37.684 5.025 0 14.523-38.167 10.485-42.145-1.185-1.161-5.155.845-8.827 4.461Zm-27.821 19.461c-8.466 2.978-9.498 18.223-1.235 18.223 5.82 0 14.364-15.567 10.394-18.923-1.162-.977-5.28-.661-9.16.7Zm-33.473 46.039c-6.773 2.689-15.087 9.978-18.465 16.2-6.644 12.234-2.628 37.2 6.92 43.017 3.762 2.289 4.704-.939 2.589-8.9-3.192-12.017-2.905-12.122 7.574-2.783 10.462 9.328 10.885 9.194 10.885-3.328 0-12.656.243-12.722 8.28-2.25 8.002 10.422 8.301 10.317 8.82-3.106l.536-13.889 6.046 13.889 6.046 13.889 4.314-13.889c2.826-9.105 4.507-10.539 4.873-4.166.31 5.35 2.916 9.722 5.792 9.722 2.871 0 6.385-4.372 7.806-9.722 1.94-7.317 2.741-6.628 3.232 2.777.784 15.028 5.126 15.778 16 2.778 7.749-9.261 7.986-9.261 5.031 0-1.709 5.35-.643 9.722 2.357 9.722 3.006 0 5.465-2.5 5.465-5.555 0-3.056 2.301-5.556 5.11-5.556 2.814 0 3.784 5 2.166 11.111-3.638 13.706 2.904 14.378 13.547 1.389 7.253-8.855 7.614-8.489 4.038 4.123-3.632 12.8-3.164 13.222 6.159 5.6 9.272-7.578 9.762-7.239 6.074 4.211-4.055 12.572 4.094 17.661 10.902 6.811 1.951-3.106 5.702-4.334 8.335-2.728 6.075 3.694 22.628-12.283 22.628-21.844 0-9.145-39.288-34.917-68.937-45.223-24.967-8.677-84.728-10-104.123-2.3Zm10.913 66.8c-6.982 2.767-12.69 7.467-12.69 10.45 0 12.956 28.786 36.556 54.752 44.895l28.194 9.055 21.663-17.916c19.514-16.134 20.856-18.872 13.519-27.589-18.133-21.528-73.651-31.478-105.438-18.895Zm162.147 22.05c-8.144 6.278-10.829 10.917-6.362 10.989 6.548.106 6.553 1.534.045 9.256-6.875 8.167-6.198 8.728 6.362 5.267 12.802-3.523 13.175-3.167 4.185 3.977-13.215 10.506-12.431 14.828 2.819 15.6 9.549.484 10.248 1.273 2.82 3.184-5.431 1.4-9.869 4.677-9.869 7.283 0 2.606 4.438 5.883 9.869 7.283 9.402 2.417 9.402 2.573 0 3.184-14.534.95-12.029 11.694 2.82 12.105 12.34.345 12.301.517-1.41 6.139-13.434 5.517-13.564 6.006-2.82 10.372 9.605 3.9 9.814 4.639 1.41 4.973-5.431.211-9.869 1.988-9.869 3.944s4.438 7.139 9.869 11.522c9.154 7.389 8.945 7.772-2.82 5.3-15.227-3.205-16.186.617-2.819 11.245 9.097 7.228 8.877 7.572-2.82 4.4-14.01-3.795-16.531 2.228-5.64 13.489 5.764 5.966 4.478 6.538-7.05 3.15l-14.1-4.139 11.28 12.661 11.28 12.655-13.175-6.816c-15.724-8.134-22.272-3.967-12.318 7.844 3.926 4.656 5.161 8.467 2.747 8.467-2.408 0 .214 5 5.826 11.111 14.207 15.461 22.605 13.95 38.802-6.967 37.162-47.994 44.758-130.189 16.926-183.2-9.515-18.128-16.875-19.005-35.988-4.278ZM167.8 316.95c-14.866 12.228-19.627 20.517-19.976 34.772-.248 10.3-2.25 22.562-4.439 27.256-2.543 5.456 2.679 17.078 14.489 32.228l18.471 23.694 12.503-15.422c17.788-21.939 24.494-58.189 16.536-89.411-3.564-13.989-9.085-26.272-12.272-27.3-3.186-1.028-14.573 5.355-25.312 14.183Zm-77.526 15.528c-23.174 9.194-18.216 46.3 6.182 46.3 16.282 0 26.31-9.878 26.31-25.917 0-10.094-15.51-25.639-23.597-23.644-.982.239-4.986 1.711-8.895 3.261Zm-40.64 77.556c-9.408 7.794-17.106 18.889-17.106 24.65 0 11.916 21.803 24.7 51.464 30.183 20.162 3.722 63.995-4.628 69.387-13.222 1.59-2.534-5.132-14.895-14.94-27.467-13.564-17.378-20.67-22.156-29.666-19.928-6.502 1.606-18.623.378-26.93-2.733-12.791-4.794-17.732-3.483-32.21 8.517Zm-36.575 63.889C4.898 483.473-.922 494.1.12 497.534c1.038 3.433 14.472 12.483 29.84 20.111 35.261 17.489 93.228 19.111 133.694 3.728 30.151-11.456 33.913-22.273 15.081-43.367-6.441-7.217-9.875-9.367-7.631-4.783 3.305 6.761 2.645 7.022-3.519 1.388-11.359-10.383-15.882-8.427-12.887 5.556 2.363 11.011 1.929 11.344-3.627 2.778-8.877-13.684-16.485-12.089-13.259 2.778 2.639 12.188 2.487 12.227-6.17 1.716-8.646-10.505-8.889-10.433-9.233 2.778l-.36 13.561-5.674-13.889L110.697 476l-7.868 13.889-7.862 13.889-.558-13.889L93.85 476l-6.046 13.889-6.046 13.889-3.756-13.889c-3.638-13.433-3.976-13.528-10.35-2.778-6.305 10.645-6.587 10.539-6.756-2.45-.163-13.205-.4-13.277-9.046-2.777-8.657 10.511-8.81 10.472-6.17-1.717 3.029-13.967-1.551-15.978-12.656-5.556-6.04 5.667-6.7 4.645-3.57-5.555 5.189-16.917 1.196-15.733-16.395 4.867Zm-8.73 68.416c0 4.406 2.537 9.55 5.64 11.439 3.101 1.889 5.64-1.716 5.64-8.005 0-6.289-2.539-11.439-5.64-11.439-3.103 0-5.64 3.6-5.64 8.005Zm19.756 14.167c-3.847 11.928.231 22.272 8.776 22.272 2.921 0 5.307-7.5 5.307-16.666 0-18.862-8.697-22.323-14.083-5.606Zm25.182 8.85c-6.21 16.094-3.125 24.533 8.973 24.533 5.527 0 8.127-6.216 8.127-19.444 0-22.828-9.199-25.567-17.1-5.089Zm84.858-1.856c.146 23.85 6.655 37.5 17.878 37.5 8.821 0 10.219-2.477 7.05-12.5-8.849-27.972-13.733-37.5-19.227-37.5-3.18 0-5.747 5.623-5.701 12.5Zm-52.716-3.238c-7.625 7.505-3.926 35.183 4.698 35.183 5.91 0 8.46-5.867 8.46-19.445 0-18.383-4.732-24.044-13.158-15.738Zm24.437 18.516c0 18.517 1.878 22.222 11.28 22.222 11.765 0 13.953-9.055 7.727-31.944-5.905-21.706-19.007-15-19.007 9.722Z"/></svg>