<svg xmlns="http://www.w3.org/2000/svg" width="600" fill="none" viewBox="0 0 1051 720"><path fill="#FF85B0" d="M127.458 325.302c-67-130.415 43.965-233.4 102.291-257.019C281.984 51.27 331.655 63.65 370.562 84.11c44.324 28.001 75.758 92.445 83.528 164.508 6.216 57.651 30.747 110.397 61.567 137.521 17.338 15.259 81.604 61.648 89.701 75.765 100.004 113.185-24.177 209.909-69.151 214.362-33.576 3.325-127.529-32.71-150.41-128.589-19.282-80.795-118.099-106.326-138.366-116.155-37.595-18.232-83.992-36.182-119.973-106.219Z" opacity=".2"/><path fill="#0551D8" d="M735.245 124.606c122.763-71.607 234.598 9.217 254.077 85.698 19.178 49.678 9.764 98.398-8.025 137.117-24.807 44.353-85.556 78.118-154.906 89.371-55.48 9.003-105.264 35.48-129.922 66.717l-277.019 3.349c10.03-41.129 44.071-100.002 113.933-120.677 77.206-22.849 96.8-119.82 105.264-139.947 15.7-37.334 30.67-83.172 96.598-121.628Z" opacity=".2"/><ellipse cx="516.59" cy="669.263" fill="#FED601" opacity=".2" rx="275.742" ry="50.135"/><circle cx="777.813" cy="213.973" r="41.872" fill="#fff" transform="rotate(-104.464 777.813 213.973)"/><mask id="a" fill="#fff"><path d="M763.01 191.492a43.962 43.962 0 0 0-25.184 41.86 43.955 43.955 0 0 0 8.56 24.047 43.967 43.967 0 0 0 67.884 3.448 43.971 43.971 0 0 0 7.247-48.312l-39.775 18.732-18.732-39.775Z"/></mask><path stroke="#000" d="M763.01 191.492a43.962 43.962 0 0 0-25.184 41.86 43.955 43.955 0 0 0 8.56 24.047 43.967 43.967 0 0 0 67.884 3.448 43.971 43.971 0 0 0 7.247-48.312l-39.775 18.732-18.732-39.775Z" mask="url(#a)"/><mask id="b" fill="#fff"><path d="M827.531 195.819a43.965 43.965 0 0 0-58.508-21.043l18.732 39.775 39.776-18.732Z"/></mask><path stroke="#000" d="M827.531 195.819a43.965 43.965 0 0 0-58.508-21.043l18.732 39.775 39.776-18.732Z" mask="url(#b)"/><path fill="#fff" d="m340.196 154.294 71.956 19.71-19.307 70.488-71.957-19.71z"/><path fill="#000" d="M359.471 143.411a1.807 1.807 0 0 0-2.504-.508l-13.553 8.985a1.807 1.807 0 1 0 1.996 3.011l12.048-7.986 7.986 12.048a1.806 1.806 0 0 0 3.012-1.997l-8.985-13.553Zm-21.335 89.724a1.806 1.806 0 1 0 3.541.718l-3.541-.718Zm18.058-89.085-18.058 89.085 3.541.718 18.059-89.085-3.542-.718Z"/><path fill="#000" d="M416.921 233.438a1.806 1.806 0 0 0 .497-2.506l-9.045-13.513a1.807 1.807 0 1 0-3.003 2.01l8.04 12.011-12.012 8.04a1.808 1.808 0 0 0 2.01 3.003l13.513-9.045Zm-88.823-20.737a1.807 1.807 0 0 0-.702 3.545l.702-3.545Zm88.169 17.463-88.169-17.463-.702 3.545 88.169 17.463.702-3.545Z"/><path stroke="#000" d="m355.276 220.707-.443 2.241M343.151 203.561l2.24.444M367.974 223.221l-.444 2.241M345.663 190.866l2.241.443M381.416 225.883l-.444 2.24M348.326 177.423l2.24.444M394.111 228.396l-.444 2.24M350.839 164.728l2.241.443M357.965 207.559c20.892 4.989 56.126 4.365 62.986-44.59"/><path fill="#fff" d="M181.898 256.914c6.854-32.031-17.77-69.49-30.938-84.216l-62.917 82.278 93.855 1.938Z"/><path stroke="#000" d="m165.824 173.548-76.551 70.365 102.125 4.3"/><path fill="#000" d="M141.779 225.894c.335.034.592.133.773.299.18.166.264.401.251.707a1.656 1.656 0 0 1-.058.338 7.058 7.058 0 0 1-.256.789.917.917 0 0 1-.113.218c-.086.174-.199.278-.339.311a5.412 5.412 0 0 1-.388.088.688.688 0 0 0-.331.119c-.092.056-.142.192-.151.409-.006.148.011.331.051.55.04.219.085.453.133.702.049.249.093.503.131.761.039.258.054.491.045.698-.024.572-.331.934-.92 1.087-.21.061-.385.108-.524.141-.14.034-.26.058-.359.074a1.277 1.277 0 0 1-.253.019 1.432 1.432 0 0 1-.207.006.55.55 0 0 1-.406-.21 1.682 1.682 0 0 1-.288-.545 6.376 6.376 0 0 1-.217-.839 33.154 33.154 0 0 1-.162-1.088c-.07-.448-.133-.816-.19-1.104a2.361 2.361 0 0 0-.194-.675c-.072-.171-.161-.289-.267-.352a.853.853 0 0 0-.378-.15l-2.801-.34c-.285-.031-.609-.07-.973-.115a26.69 26.69 0 0 1-1.103-.194 10.73 10.73 0 0 1-1.098-.313 4.532 4.532 0 0 1-.942-.484 2.472 2.472 0 0 1-.654-.665 1.635 1.635 0 0 1-.213-.927c.011-.257.061-.502.15-.735.089-.243.198-.475.326-.697.128-.232.266-.458.413-.679.158-.221.305-.437.442-.648a24.055 24.055 0 0 1 1.806-2.428 82.4 82.4 0 0 0 1.937-2.363c.26-.305.397-.64.413-1.005a1.764 1.764 0 0 0-.054-.491 1.834 1.834 0 0 1-.053-.491c.008-.207.07-.367.183-.481a1.13 1.13 0 0 1 .44-.248c.18-.052.374-.083.582-.094.208-.011.41-.013.607-.004.513.021.883.141 1.111.358.238.207.396.446.474.716.087.27.125.539.114.805-.001.256.016.45.05.58.329 1.327.664 2.64 1.004 3.938.341 1.289.656 2.596.946 3.921.05.23.142.392.276.486.134.095.314.157.54.186l.694.059Zm-6.093-.598a4.573 4.573 0 0 0 .692.089c.178.007.318-.026.419-.101a.45.45 0 0 0 .179-.363 1.15 1.15 0 0 0-.046-.328c-.06-.22-.119-.444-.179-.674a14.377 14.377 0 0 0-.176-.748c-.058-.259-.13-.534-.217-.824-.076-.3-.176-.625-.299-.976a1.372 1.372 0 0 0-.164-.332.425.425 0 0 0-.362-.208c-.177-.008-.355.098-.532.318-.365.469-.72.928-1.065 1.377-.335.451-.656.911-.962 1.382-.107.193-.163.354-.169.482a.466.466 0 0 0 .119.346.774.774 0 0 0 .377.193l2.385.367Zm24.442-8.644c.344.044.62.159.83.346.21.176.352.444.425.803l.074.358a1.997 1.997 0 0 1 .04.461.772.772 0 0 1-.262.582c-.154.142-.369.216-.646.224-.797-.063-1.516-.118-2.156-.164a40.6 40.6 0 0 0-1.876-.124 52 52 0 0 0-2.176-.047c-.711 0-1.414.024-2.107.074-.356.015-.54.16-.552.436-.008.188.144.347.454.479.689.285 1.403.582 2.141.89.747.308 1.479.64 2.195.996.716.356 1.396.74 2.04 1.152a8.989 8.989 0 0 1 1.677 1.33 5.465 5.465 0 0 1 1.119 1.588c.272.575.394 1.202.365 1.882a4.509 4.509 0 0 1-.561 2.051 4.762 4.762 0 0 1-1.413 1.555c-.591.42-1.305.735-2.144.947-.828.212-1.751.296-2.766.254a11.539 11.539 0 0 1-2.634-.422 8.407 8.407 0 0 1-2.327-1.032 5.552 5.552 0 0 1-1.648-1.669c-.407-.659-.592-1.418-.556-2.275.015-.375.064-.704.145-.987.081-.293.197-.574.347-.844.151-.31.338-.524.56-.644.232-.118.481-.172.748-.161l.738.061c.699.059 1.038.315 1.019.769a1.03 1.03 0 0 1-.073.338 3.45 3.45 0 0 0-.221 1.027c-.023.533.096.997.356 1.393.27.387.622.713 1.055.978.434.255.924.449 1.472.58a8.367 8.367 0 0 0 1.62.231c1.035.044 1.835-.085 2.401-.387.566-.312.862-.764.887-1.356.024-.571-.161-1.093-.556-1.564-.395-.471-.973-.939-1.734-1.406-.76-.467-1.693-.95-2.798-1.451a734.761 734.761 0 0 1-3.75-1.714c-1.036-.488-1.534-1.225-1.492-2.211.003-.069.012-.177.028-.324a9.92 9.92 0 0 1 .154-.823c.114-.618.347-1.092.697-1.423.36-.34.852-.552 1.478-.634a44.488 44.488 0 0 1 3.776-.315 41.157 41.157 0 0 1 3.185.001 30.84 30.84 0 0 1 2.422.191Z"/><circle cx="170.037" cy="215.605" r="2.391" stroke="#000" transform="rotate(2.411 170.037 215.605)"/><path fill="#FED601" d="M334.543 515.899h363.303l-17.04 171.505-324.109-9.092-22.154-162.413Z"/><path fill="#FF85B0" d="M671.159 487.17H362.826l-20.183-110.72 340.628 3.737-12.112 106.983Z"/><path fill="#0551D8" d="M691.372 508.478H341.81l19.5-20.065h306.711l23.351 20.065Z"/><path stroke="#000" d="M334.302 508.478H698.45l-10.107 169.834H349.739l-15.437-169.834ZM698.449 508.478H334.302l20.637-20.065h322.873l20.637 20.065ZM677.956 488.413H354.95l-12.767-105.56h343.17l-7.397 105.56Z"/><path fill="#000" d="M295.931 441.742c1.812.468 3.551.369 4.989-.959 1.232-1.144 2.041-2.522 1.836-4.306-.097-.147-.169-.319-.29-.393-1.752-1.193-2.573-1.107-3.745.775-.169.27-.398.492-.567.701-1.148-.197-1.619-.812-1.51-1.907.157-1.623.749-2.927 2.138-3.911 1.993-1.415 4.167-2.055 6.559-2.055 1.268 0 2.235.517 3.225 1.366 2.271 1.956 3.02 6.864 1.981 9.545-1.824 4.687-4.928 7.959-9.325 10.099-1.015.492-2.005 1.058-3.032 1.513-3.793 1.673-7.598 1.698-11.512.308-3.104-1.107-5.303-3.174-7.199-5.819-2.73-3.788-4.035-8.106-5.146-12.583-.87-3.482-.846-6.963-.688-10.481.048-1.058.229-2.116.483-3.149 1.256-4.945 2.911-9.718 6.064-13.801 2.391-3.1 4.94-6.077 8.431-7.898 2.561-1.328 5.17-2.521 8.057-3.161 2.923-.64 5.846-1.132 8.794-1.279 3.95-.197 7.888.221 11.729 1.181 3.587.898 7.247 1.586 10.642 3.136 2.488 1.132 4.904 2.473 7.453 3.445 2.379.91 4.421 2.361 6.438 3.776 4.3 3.014 8.335 6.372 11.91 10.296 1.196 1.316 2.38 2.632 3.443 4.071 1.462 1.993 2.452 4.195 3.382 6.458a77.374 77.374 0 0 1 1.619 4.343c1.015 3.001 2.065 5.99 2.549 9.164.447 2.903 1.075 5.781 1.739 8.647.592 2.559.604 5.179 1.027 7.762.169.997.64 1.673 1.449 2.128.327.185.773.271 1.136.222 1.184-.185 2.367-1.513 2.367-2.719-.012-1.304-.132-2.607-.265-3.911-.085-.886-.399-1.772-.387-2.657.024-1.267-.266-2.387-.761-3.531-.35-.787-.374-1.722-.556-2.595a5.976 5.976 0 0 0-.277-.935c-.918-2.35-1.619-4.761-2.054-7.258-.109-.627-.447-1.217-.664-1.82-.314-.837-.725-1.661-.906-2.534-.616-2.916-1.957-5.536-3.129-8.217-.604-1.403-1.558-2.645-2.355-3.949-.133-.209-.326-.381-.411-.603-.809-2.226-2.669-3.628-4.083-5.387-.048-.062-.096-.136-.169-.185-2.271-1.451-3.636-3.924-5.822-5.437-1.981-1.378-3.6-3.223-5.774-4.342-.701-.369-1.268-1.009-1.921-1.476-.519-.382-1.051-.763-1.63-1.021-2.585-1.107-5.122-2.288-7.502-3.838-1.063-.689-2.343-1.033-3.539-1.501-1.051-.406-2.114-.775-3.177-1.144-.447-.16-.918-.332-1.377-.381-2.259-.246-4.349-1.046-6.475-1.759-1.28-.431-2.657-.591-4.01-.775-2.706-.369-5.411-.677-8.129-.997-.471-.061-.979-.122-1.438-.024-1.957.418-4.034.012-5.919.922-.41.197-.954.111-1.425.136-2.102.135-4.143.541-6.016 1.574-.145.074-.277.197-.434.209-2.682.283-4.579 2.325-6.982 3.223-.568.209-1.063.726-1.51 1.193-1.462 1.501-2.791 3.162-4.349 4.552-2.694 2.386-4.01 5.658-5.75 8.672-.193.344-.302.763-.374 1.169-.387 2.103-1.401 3.973-2.066 5.966-.483 1.451-.773 3.001-.906 4.539-.217 2.607-.205 5.227-.374 7.835-.061.91-.012 1.772.217 2.657.254.947.314 1.944.568 2.879.338 1.242.809 2.46 1.196 3.69.386 1.242.664 2.522 1.099 3.752.266.75.749 1.439 1.136 2.152.072.136.253.246.29.394.652 2.669 2.802 4.342 4.227 6.495.387.59.991 1.082 1.583 1.476 2.561 1.697 5.375 2.928 8.25 3.936 1.244.431 2.694.357 4.047.332 1.28-.024 2.56-.246 3.829-.455.628-.098 1.28-.27 1.824-.578 1.896-1.07 4.01-1.636 5.919-2.645 1.401-.738 2.657-1.795 3.937-2.767.701-.542 1.245-1.292 1.945-1.833 1.691-1.329 2.899-3.002 3.962-4.871 1.559-2.756 2.066-5.745 1.703-8.759-.314-2.607-1.679-4.92-3.551-6.79-1.015-1.021-2.114-1.943-3.527-2.484-1.703-.652-3.358-.788-5.182-.615-3.056.295-5.267 2.214-7.731 3.665-1.075 1.439-2.126 2.866-2.186 4.798a29.764 29.764 0 0 1-.242 2.927c-.157 1.181.254 2.079 1.136 2.805.64.467 1.268.972 2.041 1.611ZM699.007 276.869c.662.277 1.217.668 1.807.743 1.713.215 3.425.303 5.15.429.212.012.496-.038.637-.177.898-.907 2.126-.302 3.154-1.045.33 1.058.696 1.902.85 2.797.154.806-.26 1.562-1.181 1.865-2.409.781-4.819.504-7.228.189-1.016-.139-2.008-.366-3.024-.479-.366-.038-.744.088-1.122.151-.354 1.638-.496 3.251-1.074 4.675-.579 1.437-.189 3.138-1.359 4.473-1.181-.214-2.551-.151-3.472-1.65.248-1.437.933-2.773 1.335-4.184.39-1.361 1.122-2.772.661-4.41-3.531-.416-6.826-1.978-10.31-1.752-.626-.491-.603-1.071-.508-1.663.071-.416.153-.819.283-1.222.709-2.193 2.15-2.923 4.217-2.079 1.157.479 2.208 1.197 3.401 1.613 1.134.39 2.268.39 3.602.781-.106-3.78.378-7.271-.744-10.748 1.512-1.147 3.106-.794 4.512-.127.945.454 1.204 1.714 1.063 2.848-.095.731-.461 1.437-.52 2.168-.189 2.242-.189 4.485-.13 6.804ZM536.926 106.273c-.56 1.002-1.072 1.979-1.645 2.933-.731 1.231-.804 2.595-.767 3.946.061 2.957-.073 5.938.365 8.847.354 2.341-.048 4.634.268 6.939.061.471-.024.99.134 1.437.67 1.882-.316 3.391-1.108 4.936-.427.845-1.097 1.062-2.023.821-.682-.169-1.413-.145-2.169-.206-.231.58-.426 1.002-.572 1.449-.427 1.315-.037 2.22 1.316 2.594 1.937.544 3.862.423 5.604-.712 1.34-.869 2.315-2.051 2.559-3.644.207-1.425.365-2.873.353-4.297-.036-2.317-.207-4.646-.353-6.964-.134-2.16-.329-4.308-.488-6.469-.109-1.52-.243-3.029-.268-4.55-.024-1.532.512-2.812 1.999-3.572.779-.41 1.523-.917 2.254-1.424 1.547-1.05 1.608-2.969.073-4.007a32.9 32.9 0 0 0-3.351-1.931c-.804-.411-1.255-1.038-1.389-1.847-.134-.857-.17-1.75-.122-2.619.195-3.355.427-6.698.67-10.041.159-2.16.232-4.32.549-6.457.353-2.45-.171-4.526-1.633-6.553-1.096-1.509-2.254-2.921-3.643-4.152-1.596-1.436-3.107-.917-3.826 1.158-.365 1.05-.207 1.871.488 2.656.475.543.901 1.158 1.45 1.617.901.748 1.51 1.641 1.778 2.776.049.23.354.434.329.627-.292 2.559.768 5.07.232 7.64-.085.386-.207.797-.171 1.17.293 3.296-.487 6.53-.511 9.813-.025 3.065.755 5.841 3.435 7.772.11.061.134.242.183.314ZM666.415 170.388c-.541.654-.956 1.357-1.531 1.845-.829.702-1.692.761-2.405-.179-.748-1-1.531-1.976-2.348-2.904a249.611 249.611 0 0 0-4.396-4.82c-.138-.154-.403-.178-.691-.297-.817.535-1.6 1.107-2.233 1.94-.943 1.225-1.968 2.392-3.199 3.332-.173.131-.426.309-.449.488-.242 1.404-1.519 1.868-2.256 2.832-.863-.488-1.703-.88-2.221-1.737-.391-.643-.426-1.178.046-1.738.656-.773 1.289-1.595 2.06-2.225 1.681-1.381 3.05-3.095 4.615-4.594.38-.357.622-.869.887-1.25-.116-.262-.139-.452-.242-.535-2.498-1.952-4.512-4.463-6.94-6.498-.633-.536-1.381-.928-2.152-1.452.414-1.809 1.715-2.595 3.107-3.249.23-.107.61.012.875.131a6.083 6.083 0 0 1 3.015 2.749c1.301 2.368 3.303 4.023 5.432 5.796.61-.726 1.071-1.464 1.704-1.988a26.252 26.252 0 0 0 3.855-4.034c.622-.786 1.22-1.583 1.876-2.44 1.024-.107 1.588.667 2.152 1.404 1.278 1.69 1.151 3.083-.391 4.535-.23.214-.461.428-.737.559-2.255 1.107-3.913 2.94-5.581 4.903 0 .905.563 1.547 1.208 2.095 1.404 1.214 2.67 2.547 3.706 4.106.08.131.149.333.264.369 1.485.392 1.865 1.963 2.97 2.856ZM740.026 356.911c-1.457-1.27-3.086-1.023-4.545-1.387-1.47-.369-2.896-.867-4.358-1.259-1.467-.38-2.953-.702-4.504-1.059-.089-1.5.6-2.815 1.392-4.056.505-.773 1.915-1.016 2.619-.343 1.365 1.278 3.018 1.748 4.756 2.116.787.162 1.577.392 2.281.762 1.67.87 3.454 1.292 5.308 1.319 2.069.034 3.009 1.627 2.633 3.481-.247 1.216-.636 2.397-.963 3.585-.207.796-.487 1.581-.609 2.392-.184 1.29-.339 2.537-.997 3.758-.516.953-.404 2.238-.749 3.329-.79 2.436-1.247 4.906-1.574 7.446-.255 2.027-.95 3.997-1.405 6.008-.245 1.098-.391 2.204-.621 3.517 1.488-1.936 3.121-3.547 4.099-5.485 1.36-2.688 3.586-4.728 4.904-7.404.324-.652.808-1.288 1.366-1.728 1.555-1.231 2.606-2.935 4.005-4.31.576-.566 1.061-1.28 1.447-2.002 1.134-2.135 2.708-3.911 4.188-5.784.62-.774 1.127-1.625 1.705-2.426.383-.527.752-1.084 1.191-1.552 1.861-1.98 3.349-4.217 4.69-6.584.813-1.417 1.904-2.674 2.889-3.993 1.09-1.441 2.222-2.855 3.3-4.3.891-1.194 1.766-2.38 3.103-3.12.753-.413 1.496-.607 2.324-.339.537.183 1.088.291 1.613.509 1.948.767 3.92 1.425 5.903 2.086 1.801.599 3.56 1.394 5.336 2.103a39.07 39.07 0 0 0 6.212 1.889c1.784.383 3.491 1.108 5.234 1.687 1.213.413 2.413.939 3.65 1.241 1.887.458 3.666 1.155 5.331 2.154.338.207.726.378 1.105.428 1.419.181 2.896.118 4.196.875.888-.249 1.551.318 2.247.673 1.305.666 2.6 1.251 4.11 1.239.537-.001 1.065.284 1.645.455.077.525.181 1.006.209 1.488.073 1.325-.279 1.796-1.502 2.129-.985.269-1.937.102-2.852-.209a1399.95 1399.95 0 0 1-11.842-4.065c-2.124-.736-4.224-1.541-6.344-2.289-2.35-.824-4.71-1.653-7.087-2.396-3.067-.964-6.164-1.806-9.239-2.747-2.847-.863-5.666-1.769-8.455-2.651-.955.331-1.536 1.026-2.079 1.761-1.998 2.721-3.988 5.458-5.978 8.194a586.773 586.773 0 0 0-2.615 3.601c-2.116 2.956-4.209 5.921-6.343 8.858-1.556 2.136-2.98 4.409-4.793 6.287-2.128 2.204-3.838 4.72-5.689 7.124-2.007 2.599-3.704 5.449-5.548 8.17-1.288 1.912-2.58 3.835-3.929 5.7-1.349 1.865-2.77 3.68-4.369 5.342-.339.357-.651.75-1.008 1.088-.638.636-1.378.897-2.211.495-.834-.401-1.099-1.161-1.029-2.043.043-.576.181-1.133.324-1.702.563-2.407 1.172-4.8 1.701-7.219.386-1.773.836-3.51 1.256-5.271.794-3.274 1.47-6.576 1.897-9.936.472-3.752.84-7.539 2.138-11.167.534-1.42.64-2.934.93-4.463ZM469.056 213.259c.383-1.458 1.477-1.977 2.652-2.248 2.608-.596 4.78-2.005 6.923-3.489.196-.133.378-.35.586-.386 2.755-.508 4.979-2.376 7.733-2.884.517-.096 1.013-.433 1.489-.7.759-.426 1.439-1.004 2.233-1.319 4.301-1.714 8.098-4.284 12.017-6.662 1.204-.733 2.5-1.014 3.957-.383.619 1.108 1.136 2.383 1.983 3.398.888 1.079 1.274 2.339 1.873 3.528.638 1.265 1.482 2.411 1.725 3.869.087.499.554.945.85 1.408.39.593.843 1.158 1.156 1.789.597 1.201.962 2.542 1.703 3.64a17.628 17.628 0 0 1 1.858 3.551c.11.298.246.588.434.836a12.237 12.237 0 0 1 2.017 4.474c.335 1.493 1.164 2.565 2.785 3.227 1.061.098 2.126-.484 3.194-.982 1.005-.469 2.043-.804 3.104-1.136 1.337-.431 2.658-1.031 3.829-1.803 1.406-.925 2.966-1.51 4.463-2.185 1.32-.588 2.549-1.235 3.728-2.066 2.227-1.581 2.942-1.416 4.285.955.58 1.032 1.096 2.104 1.625 3.166.638 1.265 1.287 2.531 1.9 3.805.533 1.134.962 2.327 1.547 3.431 1.681 3.197 2.737 6.703 4.826 9.707.309.453.603.939.797 1.45.454 1.197-.147 2.344-1.433 2.746-1.598.497-3.078 1.233-4.573 1.993-1.534.778-3.248 1.238-4.881 1.838-.591.219-1.244.347-1.741.696-1.024.741-2.125 1.319-3.22 1.945-1.12.635-2.298.941-3.456 1.381-.365.137-.78.185-1.135.347-1.001.434-1.565 1.049-1.612 2.308-.057 1.448-.56 2.892-.867 4.324-.071.301-.214.607-.237.914-.182 2.114-.385 4.212-.495 6.334-.169 3.378-.278 6.751-.423 10.132-.021.391-.148.77-.181 1.16-.202 1.872-.689 3.712-.39 5.63.119.753.048 1.579-.134 2.333-.236 1.011-.194 2.017-.227 3.038-.041.997-.672 1.986-.638 2.955.039.923.268 1.867.15 2.795-.154 1.246-.427 2.479-.68 3.845-.396.098-.824.263-1.275.307-2.77.22-5.536.727-8.316.087-4.254.242-8.356-.942-12.548-1.337-2.014-.183-4.122-.281-6.034-1.25-.535-.264-1.243-.285-1.872-.261-2.332.079-4.547-.663-6.838-.841-1.503-.124-3.013-.177-4.51-.253-.311-.012-.651.116-.947.071-1.629-.282-3.158.14-4.697.548-.299.085-.625.096-.957.153-1.038-.607-1.344-1.513-1.192-2.628.048-.316.063-.66.213-.917 1.022-1.779.868-3.811 1.29-5.706.403-1.85.818-3.686 1.033-5.569.223-1.953.624-3.887.871-5.837.176-1.327.185-2.673.349-4.002.226-1.87.166-3.772.901-5.572.168-.41.071-.933.077-1.41.019-2.692.487-5.32.874-7.97.217-1.478.268-2.974.402-4.461.049-.543.031-1.117.186-1.636.383-1.351-.136-2.388-.825-3.527-1.508-2.497-2.836-5.105-4.204-7.669-1.15-2.158-2.275-4.325-3.412-6.494-.148-.279-.396-.534-.459-.827-.512-2.789-2.474-4.896-3.584-7.407-1.283-2.889-2.979-5.539-5.314-7.76-.131-.111-.172-.282-.311-.537Zm23.205 35.459c-.48 1.352-1.045 2.503-1.281 3.728-.245 1.307-.42 2.623-.667 3.942-.401 2.147-.463 4.37-.711 6.547-.312 2.73-.67 5.443-1.267 8.14-.323 1.454-.66 2.929-.708 4.402-.037 1.271-.294 2.47-.506 3.697-.086.539-.33 1.095-.269 1.615.118 1.074-.209 2.039-.58 2.974-.221.559-.297 1.015-.12 1.572.158.518.24 1.064.371 1.604.202.13.395.331.609.355 1.569.179 3.085.818 4.605.896 2.011.098 3.895.683 5.867.908 4.561.545 9.103 1.362 13.535 2.607.991.281 2.029.363 3.051.48 2.744.325 5.523.237 8.254.776.223.049.488.056.699-.004 1.11-.338 2.2-.714 3.289-1.078.242-1.379.386-2.639.694-3.855.383-1.459.516-2.945.579-4.44.024-.63.059-1.257.142-1.88.284-2.268.314-4.542.25-6.826-.052-1.651-.196-3.337.107-4.935.339-1.809.324-3.576.216-5.376-.041-.696.041-1.414.097-2.111.172-2.353.392-4.7.516-7.046.052-.984-.122-1.993-.194-2.943-2.019-.445-3.863-1.061-5.736-1.216-3.315-.271-6.629-.769-9.984-.699-1.581.034-3.225.097-4.734-.29a20.768 20.768 0 0 0-5.173-.663c-.542-.002-1.104-.138-1.644-.259-3.056-.647-6.128-.95-9.307-.622Zm25.354-22.664c-.2-.786-.285-1.511-.575-2.14-.831-1.788-1.739-3.536-2.646-5.285-1.462-2.802-2.977-5.562-4.413-8.373-1.666-3.23-3.256-6.487-4.91-9.716-.196-.392-.57-.697-.888-1.079-.917.551-1.771.966-2.521 1.524-2.684 1.994-5.768 3.275-8.662 4.9a133.46 133.46 0 0 1-3.325 1.814c-2.523 1.321-5.036 2.667-7.601 3.936-1.837.911-3.713 1.734-5.233 3.134.004 2.277 1.204 4.107 2.148 5.955 1.79 3.519 3.556 7.023 4.864 10.749.309.881.792 1.712 1.239 2.538.854 1.587 1.936 3.082 2.552 4.75.578 1.58 1.713 2.282 2.952 3.031.663-.425 1.174-.796 1.727-1.102a1862.25 1862.25 0 0 1 10.559-5.911c1.04-.573 2.059-1.267 3.187-1.555 1.129-.289 2.035-.841 2.968-1.426a40.829 40.829 0 0 1 2.462-1.423c2.154-1.149 4.359-2.221 6.116-4.321Zm24.894-5.048c-.276-.008-.461-.077-.587-.02-5.462 2.703-10.982 5.291-16.609 7.652-.127.057-.195.228-.393.492.665 1.137 1.305 2.378 2.076 3.539 1.262 1.909 2.595 3.837 3.174 6.037.575 2.14 1.779 4.03 2.242 6.193.14.672.504 1.286.823 2.073 1.01-.409 1.967-.776 2.901-1.158 2.339-.973 4.666-1.959 7.005-2.932 2.187-.918 4.383-1.8 6.571-2.73.722-.311 1.383-.724 2.163-1.124-2.745-6.322-6.249-12.111-9.366-18.022Zm-22.252 9.844c-.674.317-1.353.776-2.097.965-1.721.423-3.159 1.415-4.659 2.222-3.554 1.918-7.163 3.688-10.905 5.251-2.099.881-4.028 2.163-6 3.309-.375.219-.628.643-.997 1.03.649.325 1.14.774 1.634.771 1.542-.015 2.952.611 4.434.805 4.554.603 9.12 1.208 13.676 1.788.938.119 1.901.122 2.845.182 1.971.13 3.931.258 5.901.4.156.006.332.05.454.135 1.104.77 2.299.322 3.454.228.923-.074 1.314-.649 1.03-1.432-.849-2.374-1.471-4.83-2.875-6.981-.512-.786-1.087-1.543-1.213-2.547-.045-.35-.352-.719-.622-.989-1.093-1.078-1.795-2.41-2.512-3.72-.349-.636-.744-1.182-1.548-1.417Z"/><path fill="#fff" d="m223.573 290.854 22.441-47.025 71.55 59.22-93.991-12.195Z"/><path fill="#000" d="M298.738 273.435c.72 1.514 1.878 2.326 3.33 2.83.597.209 1.134.615 1.646 1.009 1.427 1.071 2.83 2.153 4.537 2.769.524.184 1.024.467 1.488.787 1.866 1.292 4.012 2.104 5.659 3.765.536.542 1.39.837 2.146 1.095 1.476.505 2.744 1.354 4.074 2.129 1.048.615 2.183 1.07 3.268 1.612.512.246 1.024.492 1.524.775 1.732 1.021 1.793 3.064.098 4.159-.39.258-.915.492-1.354.455-1.61-.16-3.207.554-4.829-.024-.415-.148-.951.036-1.439.098-.72.074-1.452.271-2.171.246-2.744-.086-5.476-.086-8.22.062-1.024.061-2.073-.271-3.11-.394-.646-.074-1.317-.185-1.939-.099-2.354.345-4.683-.036-7.025-.049-.085 0-.171.037-.244.013-3.341-.874-6.768-.136-10.147-.48-2.085-.21-4.219.073-6.317-.025-3.39-.172-6.781-.135-10.171-.468-3.366-.332-6.757-.676-10.184-.418-1.914.148-3.866-.197-5.805-.295-1.756-.086-3.451-.271-5.207.615-1.488.751-3.196.455-4.379-1.181-.28.024-.597 0-.902.074-2.281.553-4.586.639-6.915.332-2.269-.295-2.269-.283-4.183.75-.464-.086-.952-.16-1.415-.283-1.634-.43-2.268-1.611-1.537-3.149 1.013-2.141 2.147-4.221 3.22-6.325.219-.431.463-.861.671-1.304 1.329-2.806 2.658-5.611 3.951-8.429.415-.886.683-1.845 1.086-2.731.78-1.686 1.256-3.544 2.597-4.947.256-.27.317-.75.439-1.132.878-2.731 2.135-5.278 3.549-7.764.598-1.058 1.049-2.202 1.476-3.346.719-1.981 1.89-3.778 2.305-5.906.22-1.157 1.146-1.514 2.244-1.096.378.148.756.333 1.049.603 2.098 1.92 4.732 2.793 7.305 3.741.549.209 1.037.406 1.427.837.61.689 1.354 1.095 2.232 1.378.841.27 1.646.713 2.427 1.132.488.27 1.11.553 1.329 1.009.695 1.402 2.012 1.808 3.244 2.399.366.172.756.308 1.073.541 3.561 2.609 7.623 4.295 11.391 6.509 1.244.739 2.634 1.231 3.781 2.141.195.148.415.271.634.357 2.146.775 4.098 1.895 5.817 3.408.232.21.574.296.866.431 1.098.517 2.281.911 3.281 1.575.756.468 1.402.271 2.329.209Zm-5.988 3.15c-.268-.763-1.024-.997-1.622-1.366-1.036-.627-2.183-1.095-3.183-1.784-2.744-1.907-5.708-3.396-8.708-4.786-3.89-1.821-7.524-4.098-11.22-6.263-1.207-.701-2.427-1.28-3.707-1.673-1.61 1.599-3.11 3.199-4.72 4.675-1.134 1.046-2.366 1.993-4.086 1.821-.463-.049-.951.148-1.426.283-1.122.32-2.244.246-3.366-.024-1.72-.419-3.452-.788-5.489-1.243-1.439 2.916-3.036 5.771-4.256 8.908 1.195.849 2.317 1.637 3.427 2.412 1.708 1.218 3.037 2.83 3.634 4.799.537 1.759 1.025 3.605.976 5.512-.012.381.122.75.159 1.021.231.123.305.197.366.197 5.024-.012 10.024.541 15.037.505 4.122-.025 8.256.11 12.379.209 1.695.037 3.39.135 5.073.221 1.781.086 3.561.209 5.342.271.439.012.89-.185 1.292-.283.744-7.53.744-7.875 4.098-13.412Zm.086 13.707c1.439.086 2.646.197 3.853.222 2.586.061 5.171.086 7.757.123 3.878.049 7.756.098 11.635.123.451 0 .975.11 1.28-.406-.012-.086 0-.209-.036-.234-3-1.76-6.001-3.519-9.013-5.254-1.549-.898-3.22-1.587-4.622-2.67-1.317-1.009-2.793-1.661-4.22-2.375-1.366-.677-3.781-.566-4.561 1.403-.451 1.132-.89 2.288-1.488 3.347-.988 1.771-.817 3.593-.585 5.721Zm-44.978-29.198c2.549 2.042 3.866 2.522 6.293 2.116 2.756-.467 4.963-1.784 6.354-4.528a667.12 667.12 0 0 0-3.915-2.313c-.768-.443-1.439-1.021-2.378-1.157-.781-.11-1.537-.664-2.293-.639-1.086.037-.927 1.39-1.586 1.981-1.317 1.193-1.939 2.78-2.475 4.54Zm-2.769 27.488c.098-1.169.305-2.215-.195-3.212-.622-1.218-1.085-2.657-2.049-3.519-1.085-.972-2.195-2.227-4.037-2.264-.317.48-.682 1.009-1.012 1.551-1.146 1.845-1.5 4.097-3.024 5.758-.403.431-.33 1.071.305 1.71 3.195-.221 6.549.185 10.012-.024ZM528.144 348.926c.412-.755.697-1.483 1.155-2.084.883-1.169 1.978-1.263 3.146-.323 2.411 1.921 4.853 3.738 7.505 5.294 1.197.702 2.208 1.717 3.279 2.637 1.59 1.37 3.161 2.771 4.731 4.173.326.286.706.574.906.955 1.263 2.339 2.798 4.58 3.643 7.075 1.941 5.743 1.788 11.573-.589 17.121a43.423 43.423 0 0 1-5.276 9.065c-3.208 4.25-6.27 8.633-8.655 13.446-1.203 2.422-2.14 5.034-2.863 7.656-.585 2.142-.351 4.384.747 6.444 1.266 2.353 2.924 4.418 4.558 6.501.529.68 1.267 1.22 1.951 1.758a199.7 199.7 0 0 0 4.579 3.509c2.395 1.787 4.907 3.304 7.836 3.969.417.089.806.293 1.137.415.541.991.34 1.865-.138 2.621a9.528 9.528 0 0 1-1.685 1.964c-.269.234-.826.242-1.247.195-2.106-.225-4.053-1.015-5.491-2.608-1.355-1.515-3.096-2.525-4.544-3.912-1.818-1.758-3.898-3.243-5.844-4.852-.194-.164-.358-.375-.522-.586-1.33-1.834-2.708-3.644-3.956-5.536-1.077-1.642-1.4-3.552-1.83-5.466-.392-1.732-.388-3.356.054-4.977.49-1.767 1.181-3.468 1.8-5.195.081-.248.346-.441.375-.679.321-2.509 1.647-4.603 2.858-6.672 1.134-1.931 2.203-3.916 3.713-5.639 1.637-1.873 3.067-3.975 4.542-5.991 1.144-1.564 2.428-3.226 2.727-5.335.042-.241.217-.483.372-.693 1.227-1.677 1.451-3.702 1.832-5.678.165-.854.315-1.717.396-2.594.057-.612.007-1.229-.043-1.846-.051-.617-.231-1.22-.243-1.845-.085-2.86-1.194-5.286-2.988-7.432-1.242-1.484-2.417-3.023-3.66-4.507-.904-1.078-1.782-2.217-3.172-2.701-1.568-1.702-3.999-2.145-5.506-3.941-.159-.185-.432-.346-.659-.352-1.543-.071-2.499-1.015-3.382-2.18-.319-.505-.927-.745-1.549-1.174ZM215.32 189.257c-.379 3.452-1.345 6.41-4.079 8.401-1.063.782-2.115 1.519-3.395 1.933-2.213.714-4.285.403-6.292-.644-.629-.334-1.313-.771-1.703-1.358-1.259-1.888-2.213-3.959-2.191-6.341.01-.806.292-1.635.542-2.417.694-2.198 2.148-3.832 3.884-5.064 1.551-1.093 3.341-1.795 5.326-1.277.488.126 1.009.253 1.497.184 1.606-.23 2.766.771 3.949 1.588 1.041.714 1.736 1.853 2.137 3.107.206.656.239 1.358.325 1.888Zm-11.596-1.876c-.239.299-.619.851-1.074 1.335-1.617 1.715-1.487 4.81.282 6.295 2.18 1.83 4.795 1.588 6.726-.633.434-.506.868-1.013 1.236-1.577a5.2 5.2 0 0 0 .63-1.427c.195-.805.282-1.645.444-2.624-1.128-.886-2.625-.414-3.873-.978-1.236-.575-2.646-.748-4.371-.391ZM451.053 492.521a2.1 2.1 0 1 0 3.162 2.763l-3.162-2.763Zm-37.77-216.554a2.1 2.1 0 0 0-2.457 1.668l-3.554 18.558a2.1 2.1 0 0 0 4.124.789l3.159-16.496 16.496 3.159a2.1 2.1 0 1 0 .79-4.124l-18.558-3.554Zm.465 7.161a2.1 2.1 0 0 0 3.525-2.282l-3.525 2.282Zm8.593 5.908a2.1 2.1 0 0 0-3.613 2.14l3.613-2.14Zm1.059 10.368a2.1 2.1 0 0 0 3.688-2.009l-3.688 2.009Zm8.14 6.494a2.1 2.1 0 0 0-3.75 1.888l3.75-1.888Zm.379 10.413a2.1 2.1 0 0 0 3.806-1.773l-3.806 1.773Zm7.735 6.984a2.099 2.099 0 1 0-3.855 1.665l3.855-1.665Zm-.213 10.42a2.098 2.098 0 1 0 3.898-1.56l-3.898 1.56Zm7.345 7.393a2.098 2.098 0 1 0-3.938 1.457l3.938-1.457Zm-.76 10.392a2.1 2.1 0 0 0 3.974-1.356l-3.974 1.356Zm6.956 7.76a2.1 2.1 0 1 0-4.007 1.254l4.007-1.254Zm-1.289 10.342a2.1 2.1 0 0 0 4.038-1.152l-4.038 1.152Zm6.549 8.107a2.1 2.1 0 0 0-4.067 1.046l4.067-1.046Zm-1.83 10.258a2.1 2.1 0 1 0 4.093-.935l-4.093.935Zm6.095 8.445a2.098 2.098 0 1 0-4.118.817l4.118-.817Zm-2.415 10.134a2.099 2.099 0 1 0 4.141-.69l-4.141.69Zm5.566 8.823a2.099 2.099 0 1 0-4.162.551l4.162-.551Zm-3.092 9.95a2.1 2.1 0 1 0 4.18-.395l-4.18.395Zm4.886 9.185a2.1 2.1 0 1 0-4.193.217l4.193-.217Zm-3.935 9.666a2.1 2.1 0 0 0 4.199-.006l-4.199.006Zm3.931 9.645a2.1 2.1 0 1 0-4.191-.248l4.191.248Zm-5.09 9.093a2.099 2.099 0 0 0 4.16.569l-4.16-.569Zm2.383 10.122a2.1 2.1 0 0 0-4.082-.986l4.082.986Zm-6.841 7.838a2.099 2.099 0 1 0 3.902 1.55l-3.902-1.55Zm-.64 10.399a2.1 2.1 0 0 0-3.505-2.312l3.505 2.312Zm-46.109-212.059a216.494 216.494 0 0 1 2.597 3.92l3.525-2.282a214.394 214.394 0 0 0-2.648-3.995l-3.474 2.357Zm7.577 11.968a264.871 264.871 0 0 1 4.672 8.228l3.688-2.009a268.62 268.62 0 0 0-4.747-8.359l-3.613 2.14Zm9.062 16.61a318.932 318.932 0 0 1 4.129 8.525l3.806-1.773a316.909 316.909 0 0 0-4.185-8.64l-3.75 1.888Zm8.009 17.174a351.086 351.086 0 0 1 3.642 8.755l3.898-1.56a351.932 351.932 0 0 0-3.685-8.86l-3.855 1.665Zm7.049 17.605a368.64 368.64 0 0 1 3.178 8.935l3.974-1.356a375.476 375.476 0 0 0-3.214-9.036l-3.938 1.457Zm6.127 17.949a366.183 366.183 0 0 1 2.718 9.088l4.038-1.152a374.464 374.464 0 0 0-2.749-9.19l-4.007 1.254Zm5.2 18.241a350.7 350.7 0 0 1 2.237 9.212l4.093-.935a355.128 355.128 0 0 0-2.263-9.323l-4.067 1.046Zm4.214 18.474a312.38 312.38 0 0 1 1.703 9.317l4.141-.69a309.097 309.097 0 0 0-1.726-9.444l-4.118.817Zm3.107 18.691c.421 3.178.778 6.314 1.07 9.399l4.18-.395c-.297-3.14-.66-6.328-1.088-9.555l-4.162.551Zm1.763 18.801c.167 3.224.254 6.377.258 9.449l4.199-.006a192.087 192.087 0 0 0-.264-9.66l-4.193.217Zm-.002 18.846a122.748 122.748 0 0 1-.899 9.341l4.16.569c.424-3.101.733-6.327.93-9.662l-4.191-.248Zm-2.598 18.477c-.764 3.164-1.683 6.112-2.759 8.824l3.902 1.55c1.159-2.919 2.135-6.058 2.939-9.388l-4.082-.986Zm-6.904 16.911a33.124 33.124 0 0 1-2.702 3.566l3.162 2.763a37.3 37.3 0 0 0 3.045-4.017l-3.505-2.312ZM636.591 495.742a2.098 2.098 0 1 0 4.071 1.029l-4.071-1.029Zm262.3-54.886a2.1 2.1 0 0 0-2.832.892l-8.724 16.761a2.1 2.1 0 1 0 3.724 1.939l7.755-14.898 14.899 7.755a2.1 2.1 0 0 0 1.939-3.725l-16.761-8.724Zm-135.425 37.54-1.981.696 1.981-.696Zm133.722-30.586a2.098 2.098 0 1 0 4.07-1.03l-4.07 1.03Zm5.829 8.413a2.1 2.1 0 0 0-4.171.488l4.171-.488Zm-3.807 9.498a2.098 2.098 0 1 0 4.195.169l-4.195-.169Zm2.944 9.833a2.099 2.099 0 0 0-4.098-.918l4.098.918Zm-6.878 7.568a2.1 2.1 0 0 0 3.845 1.689l-3.845-1.689Zm-.929 10.202a2.1 2.1 0 1 0-3.449-2.395l3.449 2.395Zm-9.218 4.481a2.1 2.1 0 1 0 2.967 2.972l-2.967-2.972Zm-4.429 9.241a2.1 2.1 0 0 0-2.457-3.405l2.457 3.405Zm-10.168 1.36a2.099 2.099 0 1 0 1.958 3.714l-1.958-3.714Zm-6.826 7.659a2.1 2.1 0 1 0-1.484-3.928l1.484 3.928Zm-10.192-1.19a2.098 2.098 0 1 0 1.037 4.069l-1.037-4.069Zm-8.364 5.945a2.1 2.1 0 0 0-.608-4.155l.608 4.155Zm-9.725-3.284a2.1 2.1 0 0 0 .19 4.195l-.19-4.195Zm-9.386 4.154a2.099 2.099 0 1 0 .227-4.193l-.227 4.193Zm-8.873-5.15a2.1 2.1 0 0 0-.653 4.148l.653-4.148Zm-10.04 2.15a2.1 2.1 0 0 0 1.097-4.053l-1.097 4.053Zm-7.548-6.939a2.099 2.099 0 1 0-1.564 3.897l1.564-3.897Zm-10.262-.257a2.099 2.099 0 1 0 2.055-3.661l-2.055 3.661Zm-5.511-8.64a2.1 2.1 0 1 0-2.558 3.329l2.558-3.329Zm-9.757-3.153a2.1 2.1 0 0 0 3.05-2.886l-3.05 2.886Zm-2.575-9.921a2.1 2.1 0 1 0-3.489 2.336l3.489-2.336Zm-8.182-6.153a2.099 2.099 0 1 0 3.833-1.714l-3.833 1.714Zm.38-10.574a2.1 2.1 0 1 0-3.879 1.609l3.879-1.609Zm-7.987-6.821a2.1 2.1 0 1 0 3.649-2.076l-3.649 2.076Zm-1.854-10.336a2.1 2.1 0 0 0-3.314 2.578l3.314-2.578Zm-9.6-4.284a2.1 2.1 0 0 0 2.849-3.084l-2.849 3.084Zm-5.069-9.203a2.1 2.1 0 1 0-2.259 3.54l2.259-3.54Zm-10.476-.696a2.099 2.099 0 1 0 1.571-3.894l-1.571 3.894Zm-8.021-6.775a2.1 2.1 0 1 0-.839 4.114l.839-4.114Zm-10.051 3.064a2.1 2.1 0 1 0 .116-4.197l-.116 4.197Zm-9.847-3.655a2.099 2.099 0 1 0 .562 4.161l-.562-4.161Zm-8.557 6.109a2.098 2.098 0 1 0-1.179-4.029l1.179 4.029Zm-10.495-.568a2.098 2.098 0 1 0 1.733 3.824l-1.733-3.824Zm-6.521 8.252a2.099 2.099 0 0 0-2.225-3.561l2.225 3.561Zm-10.278 2.218a2.099 2.099 0 1 0 2.659 3.25l-2.659-3.25Zm-4.219 9.626a2.1 2.1 0 0 0-3.038-2.898l3.038 2.898Zm-9.425 4.658a2.1 2.1 0 0 0 3.364 2.514l-3.364-2.514Zm-1.816 10.367a2.1 2.1 0 1 0-3.634-2.104l3.634 2.104Zm-8.084 6.709a2.1 2.1 0 0 0 3.849 1.678l-3.849-1.678Zm.571 10.503a2.098 2.098 0 1 0-4.01-1.245l4.01 1.245Zm253.977-48.872c.476 1.51.899 2.997 1.269 4.461l4.07-1.03a84.158 84.158 0 0 0-1.334-4.694l-4.005 1.263Zm2.927 13.362a57.52 57.52 0 0 1 .364 9.01l4.195.169a61.792 61.792 0 0 0-.388-9.667l-4.171.488Zm-.79 17.925a46.137 46.137 0 0 1-2.78 8.486l3.845 1.689a50.43 50.43 0 0 0 3.033-9.257l-4.098-.918Zm-7.158 16.293a50.105 50.105 0 0 1-5.769 6.876l2.967 2.972a54.323 54.323 0 0 0 6.251-7.453l-3.449-2.395Zm-12.655 12.712a64.88 64.88 0 0 1-7.711 4.765l1.958 3.714a69.035 69.035 0 0 0 8.21-5.074l-2.457-3.405Zm-16.021 8.496a81.777 81.777 0 0 1-8.708 2.738l1.037 4.069a86.103 86.103 0 0 0 9.155-2.879l-1.484-3.928Zm-17.68 4.528c-3.01.441-6.057.732-9.117.871l.19 4.195a95.831 95.831 0 0 0 9.535-.911l-.608-4.155Zm-18.276.832a89.386 89.386 0 0 1-9.1-.957l-.653 4.148c3.148.496 6.332.829 9.526 1.002l.227-4.193Zm-18.043-2.86a77.753 77.753 0 0 1-8.645-2.886l-1.564 3.897a82.224 82.224 0 0 0 9.112 3.042l1.097-4.053Zm-16.852-6.804a63.071 63.071 0 0 1-7.566-4.979l-2.558 3.329a67.097 67.097 0 0 0 8.069 5.311l2.055-3.661Zm-14.273-11.018a53.69 53.69 0 0 1-5.625-7.035l-3.489 2.336a57.843 57.843 0 0 0 6.064 7.585l3.05-2.886Zm-9.974-14.902a54.384 54.384 0 0 1-1.677-4.212l-3.962 1.391a58.883 58.883 0 0 0 1.806 4.535l3.833-1.714Zm-1.677-4.212a89.455 89.455 0 0 0-1.776-4.648l-3.879 1.609a84.9 84.9 0 0 1 1.693 4.43l3.962-1.391Zm-6.114-13.545a68.794 68.794 0 0 0-5.503-8.26l-3.314 2.578a64.858 64.858 0 0 1 5.168 7.758l3.649-2.076Zm-12.254-15.628a56.193 56.193 0 0 0-7.918-6.119l-2.259 3.54a52.015 52.015 0 0 1 7.328 5.663l2.849-3.084Zm-16.823-10.709a54.95 54.95 0 0 0-9.592-2.881l-.839 4.114a50.723 50.723 0 0 1 8.86 2.661l1.571-3.894Zm-19.527-4.014a61.713 61.713 0 0 0-9.963.542l.562 4.161a57.647 57.647 0 0 1 9.285-.506l.116-4.197Zm-19.699 2.622a70.551 70.551 0 0 0-9.316 3.461l1.733 3.824a66.74 66.74 0 0 1 8.762-3.256l-1.179-4.029Zm-18.062 8.152a77.845 77.845 0 0 0-8.053 5.779l2.659 3.25a73.628 73.628 0 0 1 7.619-5.468l-2.225-3.561Zm-15.31 12.507a82.655 82.655 0 0 0-6.387 7.556l3.364 2.514a78.234 78.234 0 0 1 6.061-7.172l-3.038-2.898Zm-11.837 15.819a86.976 86.976 0 0 0-4.45 8.813l3.849 1.678a82.832 82.832 0 0 1 4.235-8.387l-3.634-2.104Zm-7.889 18.071a92.085 92.085 0 0 0-1.341 4.766l4.071 1.029c.39-1.543.817-3.06 1.28-4.55l-4.01-1.245ZM402.818 495.922a2.1 2.1 0 1 0 3.162 2.763l-3.162-2.763ZM87.396 266.052a2.1 2.1 0 0 0-2.904-.616L68.65 275.735a2.1 2.1 0 0 0 2.289 3.521l14.081-9.155 9.155 14.081a2.1 2.1 0 1 0 3.52-2.289l-10.299-15.841Zm276.086 84.751-.76 1.957.76-1.957Zm-226.33 38.848-.232 2.087.05.005.05.003.132-2.095ZM409.14 494.578a2.1 2.1 0 0 0-3.454-2.387l3.454 2.387Zm1.49-10.708a2.1 2.1 0 0 0 3.727 1.935l-3.727-1.935Zm7.985-7.295a2.1 2.1 0 0 0-3.886-1.59l3.886 1.59Zm-.558-10.787a2.1 2.1 0 0 0 4.003 1.269l-4.003-1.269Zm6.667-8.497a2.098 2.098 0 1 0-4.092-.938l4.092.938Zm-2.315-10.543a2.1 2.1 0 0 0 4.159.585l-4.159-.585Zm5.108-9.512a2.1 2.1 0 1 0-4.194-.195l4.194.195Zm-4.232-9.928a2.1 2.1 0 0 0 4.192-.234l-4.192.234Zm3.059-10.356a2.1 2.1 0 0 0-4.139.705l4.139-.705Zm-6.341-8.736a2.1 2.1 0 1 0 4.022-1.205l-4.022 1.205Zm.47-10.777a2.1 2.1 0 1 0-3.833 1.714l3.833-1.714Zm-8.347-6.827a2.099 2.099 0 0 0 3.575-2.202l-3.575 2.202Zm-2.346-10.549a2.1 2.1 0 0 0-3.262 2.644l3.262-2.644Zm-9.793-4.478a2.1 2.1 0 0 0 2.921-3.017l-2.921 3.017Zm-4.783-9.685a2.1 2.1 0 1 0-2.573 3.318l2.573-3.318Zm-10.565-2.266a2.099 2.099 0 1 0 2.238-3.552l-2.238 3.552Zm-6.528-8.56a2.099 2.099 0 1 0-1.93 3.729l1.93-3.729Zm-10.781-.436c1.066.455 2.3-.04 2.756-1.106a2.098 2.098 0 0 0-1.105-2.755l-1.651 3.861Zm-7.969-7.274a2.1 2.1 0 1 0-.943 4.092l.943-4.092Zm-10.121 2.925a2.1 2.1 0 0 0 .191-4.195l-.191 4.195Zm-9.666-4.089a2.1 2.1 0 1 0 .245 4.192l-.245-4.192Zm-9.195 5.08a2.099 2.099 0 1 0-.522-4.166l.522 4.166Zm-10.175-2.723a2.1 2.1 0 1 0 .709 4.139l-.709-4.139Zm-8.696 5.913a2.1 2.1 0 0 0-.84-4.114l.84 4.114Zm-10.304-2.059a2.1 2.1 0 1 0 .936 4.093l-.936-4.093Zm-8.419 6.321a2.1 2.1 0 0 0-1.006-4.077l1.006 4.077Zm-10.392-1.697a2.1 2.1 0 0 0 1.056 4.064l-1.056-4.064Zm-8.247 6.527a2.1 2.1 0 0 0-1.091-4.054l1.091 4.054Zm-10.404-1.519a2.098 2.098 0 1 0 1.113 4.048l-1.113-4.048Zm-8.176 6.618a2.1 2.1 0 0 0-1.124-4.046l1.124 4.046Zm-10.418-1.461a2.1 2.1 0 0 0 1.125 4.046l-1.125-4.046Zm-8.176 6.623a2.1 2.1 0 0 0-1.116-4.049l1.116 4.049Zm-10.41-1.509a2.099 2.099 0 1 0 1.096 4.053l-1.096-4.053Zm-8.236 6.542a2.1 2.1 0 0 0-1.066-4.062l1.066 4.062Zm-10.38-1.666a2.099 2.099 0 1 0 1.023 4.072l-1.023-4.072Zm-8.383 6.369a2.099 2.099 0 0 0-.967-4.086l.967 4.086Zm-10.343-1.954a2.1 2.1 0 0 0 .893 4.103l-.893-4.103Zm-8.604 6.057a2.1 2.1 0 1 0-.795-4.123l.795 4.123Zm-10.211-2.448a2.1 2.1 0 1 0 .67 4.145l-.67-4.145Zm-8.975 5.514a2.1 2.1 0 0 0-.502-4.169l.502 4.169Zm-9.996-3.276a2.101 2.101 0 0 0 .273 4.191l-.273-4.191Zm-9.515 4.473a2.1 2.1 0 0 0 .05-4.199l-.05 4.199Zm-9.359-5.001a2.1 2.1 0 0 0-.645 4.149l.645-4.149Zm-10.404 2.14a2.1 2.1 0 0 0 1.062-4.063l-1.062 4.063Zm-8.013-7.041a2.1 2.1 0 0 0-1.57 3.895l1.57-3.895Zm-10.63-.583a2.1 2.1 0 1 0 2.157-3.603l-2.157 3.603Zm-5.438-9.123a2.1 2.1 0 0 0-2.773 3.152l2.773-3.152Zm-9.732-4.283a2.1 2.1 0 0 0 3.33-2.557l-3.33 2.557Zm-1.656-10.512a2.098 2.098 0 1 0-3.747 1.895l3.747-1.895Zm-7.545-7.491a2.1 2.1 0 0 0 4.005-1.263l-4.005 1.263Zm1.778-10.509a2.1 2.1 0 0 0-4.137.72l4.136-.72Zm-5.308-9.229a2.1 2.1 0 0 0 4.19-.277l-4.19.277Zm3.977-9.895a2.1 2.1 0 1 0-4.199-.076l4.199.076Zm-3.674-10.002a2.099 2.099 0 1 0 4.184.356l-4.184-.356Zm5.269-9.273a2.1 2.1 0 0 0-4.16-.575l4.16.575Zm-2.599-10.335a2.1 2.1 0 1 0 4.133.743l-4.133-.743Zm5.997-8.801a2.1 2.1 0 0 0-4.11-.858l4.11.858Zm-2.028-10.485a2.1 2.1 0 0 0 4.1.901l-4.1-.901ZM405.98 498.685c1.018-1.166 2.08-2.544 3.16-4.107l-3.454-2.387c-1.009 1.459-1.974 2.707-2.868 3.731l3.162 2.763Zm8.377-12.88a113.046 113.046 0 0 0 4.258-9.23l-3.886-1.59a108.318 108.318 0 0 1-4.099 8.885l3.727 1.935Zm7.703-18.748a124.094 124.094 0 0 0 2.664-9.766l-4.092-.938a120.03 120.03 0 0 1-2.575 9.435l4.003 1.269Zm4.508-19.724c.464-3.303.79-6.676.949-10.097l-4.194-.195a104.54 104.54 0 0 1-.914 9.707l4.159.585Zm.909-20.259a90.348 90.348 0 0 0-1.133-10.122l-4.139.705a86.26 86.26 0 0 1 1.08 9.651l4.192-.234Zm-3.452-20.063a78.951 78.951 0 0 0-3.552-9.572l-3.833 1.714a74.904 74.904 0 0 1 3.363 9.063l4.022-1.205Zm-8.324-18.601a79.419 79.419 0 0 0-5.921-8.347l-3.262 2.644a75.211 75.211 0 0 1 5.608 7.905l3.575-2.202Zm-12.793-15.842a92.803 92.803 0 0 0-7.704-6.668l-2.573 3.318a88.591 88.591 0 0 1 7.356 6.367l2.921-3.017Zm-16.031-12.486a119.276 119.276 0 0 0-8.766-5.008l-1.93 3.729a115.405 115.405 0 0 1 8.458 4.831l2.238-3.552Zm-17.896-9.305a149.255 149.255 0 0 0-4.739-1.931l-1.52 3.914a146.17 146.17 0 0 1 4.608 1.878l1.651-3.861Zm-4.739-1.931a35.6 35.6 0 0 0-4.881-1.482l-.943 4.092c1.545.356 2.981.79 4.304 1.304l1.52-3.914Zm-14.811-2.752c-3.101-.141-6.396-.097-9.857.106l.245 4.192c3.345-.197 6.491-.237 9.421-.103l.191-4.195Zm-19.574 1.02c-3.116.39-6.338.876-9.653 1.443l.709 4.139a212.104 212.104 0 0 1 9.466-1.416l-.522-4.166Zm-19.189 3.242c-3.093.632-6.251 1.32-9.464 2.055l.936 4.093a417.952 417.952 0 0 1 9.368-2.034l-.84-4.114Zm-18.889 4.299c-3.09.762-6.221 1.558-9.386 2.38l1.056 4.064c3.151-.818 6.265-1.61 9.336-2.367l-1.006-4.077Zm-18.724 4.853c-3.083.829-6.189 1.676-9.313 2.535l1.113 4.048c3.118-.857 6.217-1.702 9.291-2.529l-1.091-4.054Zm-18.613 5.107c-3.089.858-6.192 1.723-9.294 2.585l1.125 4.046c3.106-.864 6.203-1.727 9.293-2.585l-1.124-4.046Zm-18.586 5.159c-3.103.856-6.203 1.704-9.294 2.54l1.096 4.053c3.099-.838 6.206-1.688 9.314-2.544l-1.116-4.049Zm-18.596 5.02c-3.123.82-6.23 1.621-9.314 2.396l1.023 4.072a917.88 917.88 0 0 0 9.357-2.406l-1.066-4.062Zm-18.664 4.679a525.219 525.219 0 0 1-9.376 2.132l.893 4.103a532.351 532.351 0 0 0 9.45-2.149l-.967-4.086Zm-18.775 4.066c-3.198.617-6.34 1.178-9.416 1.675l.67 4.145a317.682 317.682 0 0 0 9.541-1.697l-.795-4.123Zm-18.893 3.02c-3.265.393-6.434.694-9.494.893l.273 4.191c3.146-.205 6.392-.515 9.723-.915l-.502-4.169Zm-18.959 1.167a92.736 92.736 0 0 1-4.686-.17l-.263 4.19c1.596.1 3.229.159 4.899.179l.05-4.199Zm-4.586-.162c-1.653-.183-3.26-.397-4.823-.64l-.645 4.149c1.625.253 3.293.475 5.005.665l.463-4.174Zm-14.165-2.563a74.683 74.683 0 0 1-9.075-2.978l-1.57 3.895a79.094 79.094 0 0 0 9.583 3.146l1.062-4.063Zm-17.548-7.164a51.518 51.518 0 0 1-7.595-5.52l-2.773 3.152a55.712 55.712 0 0 0 8.211 5.971l2.157-3.603Zm-13.997-12.36a50.28 50.28 0 0 1-4.986-7.955l-3.747 1.895a54.526 54.526 0 0 0 5.403 8.617l3.33-2.557Zm-8.526-16.709a71.424 71.424 0 0 1-2.228-9.246l-4.136.72a75.664 75.664 0 0 0 2.36 9.789l4.004-1.263Zm-3.345-18.752c-.21-3.184-.272-6.4-.213-9.618l-4.199-.076c-.06 3.322.004 6.656.222 9.971l4.19-.277Zm.297-19.264c.276-3.251.648-6.471 1.085-9.629l-4.16-.575a188.8 188.8 0 0 0-1.109 9.848l4.184.356Zm2.62-19.221c.594-3.312 1.23-6.507 1.863-9.544l-4.11-.858a351.634 351.634 0 0 0-1.887 9.659l4.133.743Zm3.936-19.128c.368-1.676.717-3.271 1.035-4.771l-4.108-.871c-.314 1.483-.66 3.065-1.028 4.741l4.1.901ZM580.465 496.162a2.099 2.099 0 1 0 2.791 3.136l-2.791-3.136Zm162.506-345.261a2.099 2.099 0 0 0 2.327-1.844l2.175-18.769a2.1 2.1 0 0 0-4.171-.484l-1.933 16.685-16.684-1.933a2.099 2.099 0 1 0-.483 4.171l18.769 2.174ZM611.777 276.817l-1.709 1.22 1.709-1.22Zm129.9-133.247a2.1 2.1 0 0 0-3.243 2.667l3.243-2.667Zm-9.505-4.667a2.098 2.098 0 1 0 3.14-2.787l-3.14 2.787Zm-3.632-10.105a2.1 2.1 0 0 0-3.02 2.918l3.02-2.918Zm-9.873-3.857a2.099 2.099 0 1 0 2.881-3.055l-2.881 3.055Zm-4.478-9.645a2.1 2.1 0 1 0-2.717 3.202l2.717-3.202Zm-10.316-2.876a2.1 2.1 0 0 0 2.522-3.357l-2.522 3.357Zm-5.606-9.058a2.1 2.1 0 0 0-2.292 3.518l2.292-3.518Zm-10.522-1.42a2.098 2.098 0 1 0 2.019-3.681l-2.019 3.681Zm-6.889-8.087a2.098 2.098 0 1 0-1.693 3.842l1.693-3.842Zm-10.621.414a2.1 2.1 0 1 0 1.305-3.991l-1.305 3.99Zm-8.383-6.576a2.1 2.1 0 0 0-.847 4.112l.847-4.112Zm-10.288 2.776a2.099 2.099 0 1 0 .318-4.187l-.318 4.187Zm-9.779-4.25a2.099 2.099 0 1 0 .273 4.19l-.273-4.19Zm-9.109 5.512a2.1 2.1 0 1 0-.901-4.1l.901 4.1Zm-10.577-1.166a2.1 2.1 0 0 0 1.531 3.91l-1.531-3.91Zm-6.973 8.036a2.1 2.1 0 1 0-2.121-3.623l2.121 3.623Zm-10.427 2.132a2.1 2.1 0 1 0 2.644 3.262l-2.644-3.262Zm-4.284 9.756a2.1 2.1 0 1 0-3.08-2.854l3.08 2.854Zm-9.408 4.958a2.1 2.1 0 0 0 3.427 2.427l-3.427-2.427Zm-1.595 10.525a2.1 2.1 0 1 0-3.694-1.997l3.694 1.997Zm-7.96 7.066a2.1 2.1 0 0 0 3.891 1.58l-3.891-1.58Zm.746 10.626a2.1 2.1 0 1 0-4.03-1.18l4.03 1.18Zm-6.382 8.525a2.1 2.1 0 0 0 4.122.801l-4.122-.801Zm2.701 10.309a2.1 2.1 0 0 0-4.176-.444l4.176.444Zm-4.829 9.499a2.099 2.099 0 1 0 4.197.11l-4.197-.11Zm4.309 9.758a2.098 2.098 0 1 0-4.194.203l4.194-.203Zm-3.359 10.133a2.1 2.1 0 0 0 4.17-.497l-4.17.497Zm5.627 9.033a2.1 2.1 0 1 0-4.128.769l4.128-.769Zm-2.011 10.436a2.1 2.1 0 1 0 4.072-1.023l-4.072 1.023Zm6.703 8.272a2.1 2.1 0 0 0-4.006 1.26l4.006-1.26Zm-.761 10.645a2.1 2.1 0 1 0 3.929-1.482l-3.929 1.482Zm7.601 7.521a2.1 2.1 0 1 0-3.845 1.687l3.845-1.687Zm.335 10.598a2.1 2.1 0 1 0 3.756-1.876l-3.756 1.876Zm8.293 6.685a2.099 2.099 0 1 0-3.663 2.053l3.663-2.053Zm1.403 10.622a2.1 2.1 0 0 0 3.566-2.218l-3.566 2.218Zm8.833 5.856a2.1 2.1 0 1 0-3.467 2.368l3.467-2.368Zm2.282 10.567a2.1 2.1 0 1 0 3.452-2.391l-3.452 2.391Zm8.909 5.751a2.1 2.1 0 1 0-3.524 2.283l3.524-2.283Zm1.693 10.642a2.099 2.099 0 1 0 3.6-2.16l-3.6 2.16Zm8.545 6.437a2.1 2.1 0 0 0-3.68 2.023l3.68-2.023Zm.82 10.615a2.1 2.1 0 0 0 3.76-1.869l-3.76 1.869Zm7.966 7.091a2.1 2.1 0 0 0-3.842 1.695l3.842-1.695Zm-.125 10.728a2.1 2.1 0 1 0 3.923-1.496l-3.923 1.496Zm7.213 7.912a2.099 2.099 0 1 0-4.001 1.271l4.001-1.271Zm-1.349 10.604a2.1 2.1 0 1 0 4.073-1.019l-4.073 1.019Zm6.165 8.732a2.1 2.1 0 0 0-4.134.737l4.134-.737Zm-2.79 10.312a2.1 2.1 0 1 0 4.177-.425l-4.177.425Zm4.792 9.548a2.1 2.1 0 0 0-4.199.086l4.199-.086Zm-4.408 9.721a2.1 2.1 0 0 0 4.19.272l-4.19-.272Zm3.1 10.216a2.1 2.1 0 0 0-4.15-.644l4.15.644Zm-6.063 8.825a2.1 2.1 0 0 0 4.074 1.017l-4.074-1.017Zm1.208 10.623a2.1 2.1 0 0 0-3.965-1.38l3.965 1.38Zm-7.528 7.576a2.1 2.1 0 0 0 3.831 1.719l-3.831-1.719Zm-.644 10.673a2.1 2.1 0 0 0-3.677-2.029l3.677 2.029Zm-8.679 6.255a2.1 2.1 0 0 0 3.51 2.305l-3.51-2.305Zm-2.254 10.438a2.1 2.1 0 1 0-3.34-2.544l3.34 2.544Zm-9.474 4.995a2.1 2.1 0 0 0 3.174 2.749l-3.174-2.749Zm-3.542 10.073a2.1 2.1 0 1 0-3.017-2.92l3.017 2.92Zm-9.969 3.92a2.1 2.1 0 1 0 2.875 3.06l-2.875-3.06Zm-4.493 9.712a2.1 2.1 0 0 0-2.757-3.168l2.757 3.168Zm-10.228 3.158a2.1 2.1 0 0 0 2.679 3.234l-2.679-3.234Zm-4.906 9.494a2.1 2.1 0 0 0-2.692-3.223l2.692 3.223Zm157.956-348.662a276.59 276.59 0 0 0-3.181-3.942l-3.243 2.667a269.676 269.676 0 0 1 3.133 3.883l3.291-2.608Zm-9.546-11.396a233.618 233.618 0 0 0-6.772-7.318l-3.02 2.918a230.193 230.193 0 0 1 6.652 7.187l3.14-2.787Zm-13.764-14.23a189.72 189.72 0 0 0-7.359-6.59l-2.717 3.202a183.324 183.324 0 0 1 7.195 6.443l2.881-3.055Zm-15.153-12.823a148.008 148.008 0 0 0-8.128-5.701l-2.292 3.518a144.011 144.011 0 0 1 7.898 5.54l2.522-3.357Zm-16.631-10.802a114.89 114.89 0 0 0-8.908-4.406l-1.693 3.842c2.83 1.248 5.692 2.66 8.582 4.245l2.019-3.681Zm-18.224-7.983a88.788 88.788 0 0 0-9.688-2.585l-.847 4.112a84.597 84.597 0 0 1 9.23 2.464l1.305-3.991Zm-19.658-3.996a71.72 71.72 0 0 0-10.097-.063l.273 4.19a67.517 67.517 0 0 1 9.506.06l.318-4.187Zm-20.107 1.348a64.543 64.543 0 0 0-9.676 2.935l1.531 3.91a60.324 60.324 0 0 1 9.046-2.744l-.901-4.1Zm-18.77 7.348a66.75 66.75 0 0 0-8.306 5.755l2.644 3.262a62.757 62.757 0 0 1 7.783-5.394l-2.121-3.623Zm-15.67 12.657a76.568 76.568 0 0 0-6.328 7.812l3.427 2.427a72.33 72.33 0 0 1 5.981-7.385l-3.08-2.854Zm-11.617 16.34a90.999 90.999 0 0 0-4.266 9.063l3.891 1.58a86.545 86.545 0 0 1 4.069-8.646l-3.694-1.997Zm-7.55 18.509a107.998 107.998 0 0 0-2.352 9.705l4.122.801a103.406 103.406 0 0 1 2.26-9.326l-4.03-1.18Zm-3.827 19.57a124.887 124.887 0 0 0-.653 9.943l4.197.11c.086-3.269.298-6.475.632-9.609l-4.176-.444Zm-.538 19.904c.159 3.263.436 6.575.835 9.93l4.17-.497a138.488 138.488 0 0 1-.811-9.636l-4.194.203Zm2.334 19.732c.595 3.191 1.3 6.415 2.117 9.667l4.072-1.023a156.115 156.115 0 0 1-2.061-9.413l-4.128.769Zm4.814 19.199a178.504 178.504 0 0 0 3.245 9.385l3.929-1.482a173.753 173.753 0 0 1-3.168-9.163l-4.006 1.26Zm7.001 18.593a196.416 196.416 0 0 0 4.18 8.911l3.756-1.876a193.353 193.353 0 0 1-4.091-8.722l-3.845 1.687Zm8.81 17.649a218.943 218.943 0 0 0 5.066 8.569l3.566-2.218a213.997 213.997 0 0 1-4.969-8.404l-3.663 2.053Zm10.432 16.793a243.766 243.766 0 0 0 2.874 4.113l3.417-2.441a233.598 233.598 0 0 1-2.824-4.04l-3.467 2.368Zm2.874 4.113c.979 1.37 1.937 2.732 2.875 4.086l3.452-2.391c-.95-1.371-1.92-2.75-2.91-4.136l-3.417 2.441Zm8.26 12.12a287.772 287.772 0 0 1 5.217 8.359l3.6-2.16a289.973 289.973 0 0 0-5.293-8.482l-3.524 2.283Zm10.082 16.819a232.645 232.645 0 0 1 4.5 8.592l3.76-1.869a240.129 240.129 0 0 0-4.58-8.746l-3.68 2.023Zm8.624 17.378c1.35 3.059 2.587 6.07 3.717 9.033l3.923-1.496a194.62 194.62 0 0 0-3.798-9.232l-3.842 1.695Zm6.929 18.216a155.641 155.641 0 0 1 2.652 9.333l4.073-1.019a158.351 158.351 0 0 0-2.724-9.585l-4.001 1.271Zm4.683 18.802a128.963 128.963 0 0 1 1.344 9.575l4.177-.425a133.29 133.29 0 0 0-1.387-9.887l-4.134.737Zm1.937 19.209c.069 3.29-.005 6.501-.209 9.635l4.19.272c.212-3.254.288-6.584.218-9.993l-4.199.086Zm-1.259 19.207a106.131 106.131 0 0 1-1.913 9.469l4.074 1.017a110.872 110.872 0 0 0 1.989-9.842l-4.15-.644Zm-4.67 18.712a110.776 110.776 0 0 1-3.563 8.956l3.831 1.719c1.346-3 2.585-6.097 3.697-9.295l-3.965-1.38Zm-7.884 17.6a125.972 125.972 0 0 1-5.002 8.284l3.51 2.305c1.804-2.748 3.535-5.6 5.169-8.56l-3.677-2.029Zm-10.596 16.178a154.784 154.784 0 0 1-6.134 7.539l3.174 2.749a158.828 158.828 0 0 0 6.3-7.744l-3.34-2.544Zm-12.693 14.692a205.522 205.522 0 0 1-6.952 6.84l2.875 3.06c2.341-2.2 4.718-4.525 7.094-6.98l-3.017-2.92Zm-14.202 13.384a395.088 395.088 0 0 1-7.471 6.326l2.679 3.234a405.732 405.732 0 0 0 7.549-6.392l-2.757-3.168Zm-15.069 12.597a158.073 158.073 0 0 0-3.745 3.211l2.791 3.136c1.08-.961 2.3-2 3.646-3.124l-2.692-3.223Z"/><rect width="171.375" height="39.316" x="798.315" y="446.884" fill="#fff" rx="4.411" transform="rotate(-51.201 798.315 446.884)"/><rect width="168.288" height="36.228" x="810.238" y="445.051" stroke="#000" rx="2.867" transform="rotate(-49.627 810.238 445.051)"/><path stroke="#000" d="m824.001 432.268 6.175 5.404M861.794 387.22l6.175 5.405M842.881 409.939l6.175 5.405M880.673 364.892l6.175 5.404M900.01 341.817l6.175 5.404M832.907 420.467l6.176 5.404M870.7 375.419l6.175 5.405M851.785 398.138l6.176 5.404M889.579 353.09l6.175 5.405M908.917 330.016l6.175 5.404"/><path fill="#000" d="M438.122 100.843c.988 1.484 1.895 2.635 1.565 4.326-.56.222-1.203.597-1.895.721-3.082.597-6.164 1.262-9.296 1.609-1.813.208-3.626.471-5.472.569-2.093.11-4.071.582-6.015 1.289-1.319-.887-.956-2.163-1.055-3.314-.066-.999-.182-2.025 1.005-2.746 1.022-.61 2.011-.374 3.115-.222 1.269.181 2.604.042 3.906 0 1.962-.055 3.923-.069 5.868-.222 2.043-.166 4.021-.624 5.933-1.303.692-.263 1.418-.444 2.341-.707ZM220.78 424.314c-.721.096-1.338.067-1.865.258-1.305.494-2.592.982-4.041.924-.056-.002-.144-.014-.17.018-.648.916-1.705.573-2.612.824-.551-1.032-1.09-2.058-.596-3.293.858-.464 1.839-.589 2.843-.677 1.645-.145 3.217-.571 4.734-1.197.099-.036.166-.159.324-.315-.366-2.145-2.137-6.058-3.405-7.964.252-.256.455-.571.738-.718.462-.244.972-.407 1.472-.544 1.099-.288 2.377 1.411 2.674 2.722.176.795.712 2.609.842 3.408.133.777.583 1.351.926 2.041 2.455-.845 4.857-1.528 6.811-3.214 1.18.914 1.383 2.194 1.479 3.49.021.29-.155.628-.333.858-.662.877-1.584 1.112-2.622 1.158-1.54.074-2.921.64-4.259 1.454.091 1.331.917 2.352 1.149 3.533.226 1.139 1.581 2.975 1.532 4.257-.695.45-1.381 1.029-2.411.863-.694-.552-.843-1.477-1.122-2.3-.381-1.105-1.07-3.237-1.451-4.342-.135-.347-.355-.697-.637-1.244Z"/></svg>