<svg xmlns="http://www.w3.org/2000/svg" width="269" height="323" fill="none"><rect width="265" height="319" x="2" y="2" fill="#DAABB4" stroke="#000" rx="7"/><path fill="#000" d="M158.374 216h-20.439l-8.125-21.138H92.612L84.932 216H65l36.245-93.057h19.868L158.374 216Zm-34.595-36.816-12.822-34.532-12.568 34.532h25.39ZM166.634 216v-93.057h17.837V216h-17.837ZM25.76 63V40.84l-4.6 1.08V38l6.76-3h3.16v28h-5.32Zm18.91.48c-1.84 0-3.508-.32-5-.96a8.318 8.318 0 0 1-3.6-3.04c-.908-1.36-1.388-3.067-1.44-5.12h5.04c.026 1.36.466 2.507 1.32 3.44.88.907 2.106 1.36 3.68 1.36 1.492 0 2.64-.413 3.44-1.24.8-.827 1.2-1.867 1.2-3.12 0-1.467-.534-2.573-1.6-3.32-1.04-.773-2.388-1.16-4.04-1.16h-2.08v-4.2h2.12c1.36 0 2.492-.32 3.4-.96.906-.64 1.36-1.587 1.36-2.84 0-1.04-.348-1.867-1.04-2.48-.668-.64-1.6-.96-2.8-.96-1.308 0-2.334.387-3.08 1.16-.72.773-1.12 1.72-1.2 2.84h-5c.106-2.587 1-4.627 2.68-6.12 1.706-1.493 3.906-2.24 6.6-2.24 1.92 0 3.532.347 4.84 1.04 1.332.667 2.332 1.56 3 2.68.692 1.12 1.04 2.36 1.04 3.72 0 1.573-.44 2.907-1.32 4-.854 1.067-1.92 1.787-3.2 2.16 1.572.32 2.852 1.093 3.84 2.32.986 1.2 1.48 2.72 1.48 4.56 0 1.547-.374 2.96-1.12 4.24-.748 1.28-1.84 2.307-3.28 3.08-1.414.773-3.16 1.16-5.24 1.16ZM59.172 287.441c-1.302 1.107-2.559 1.888-3.77 2.344-1.198.456-2.487.684-3.867.684-2.278 0-4.03-.554-5.254-1.66-1.224-1.12-1.836-2.546-1.836-4.278 0-1.015.228-1.94.684-2.773.469-.847 1.074-1.524 1.816-2.031a8.686 8.686 0 0 1 2.54-1.153c.69-.182 1.731-.358 3.124-.527 2.839-.339 4.929-.742 6.27-1.211.013-.482.02-.788.02-.918 0-1.432-.333-2.441-.997-3.027-.898-.795-2.233-1.192-4.004-1.192-1.653 0-2.877.293-3.671.879-.782.573-1.361 1.595-1.739 3.067l-3.437-.469c.312-1.472.827-2.656 1.543-3.555.716-.911 1.751-1.608 3.105-2.09 1.354-.495 2.923-.742 4.707-.742 1.771 0 3.21.208 4.317.625 1.106.417 1.92.944 2.441 1.582.52.625.886 1.419 1.094 2.383.117.599.176 1.68.176 3.242v4.688c0 3.268.071 5.338.214 6.211.157.859.456 1.686.899 2.48h-3.672c-.365-.729-.599-1.582-.703-2.559Zm-.293-7.851c-1.276.521-3.19.963-5.742 1.328-1.446.208-2.468.443-3.067.703-.599.261-1.06.645-1.386 1.152a2.958 2.958 0 0 0-.489 1.661c0 .937.352 1.718 1.055 2.343.716.625 1.758.938 3.125.938 1.354 0 2.559-.293 3.613-.879 1.055-.599 1.83-1.413 2.325-2.441.377-.795.566-1.967.566-3.516v-1.289ZM67.824 290v-28.633h3.516V290h-3.516Zm22.578 0v-3.047c-1.614 2.344-3.808 3.516-6.582 3.516a8.468 8.468 0 0 1-3.437-.703c-1.055-.469-1.843-1.055-2.364-1.758-.507-.716-.865-1.589-1.074-2.617-.143-.69-.214-1.784-.214-3.282v-12.851h3.515v11.504c0 1.836.072 3.073.215 3.711.221.924.69 1.653 1.406 2.187.716.521 1.602.781 2.656.781a5.848 5.848 0 0 0 2.97-.8c.924-.547 1.575-1.283 1.952-2.207.39-.938.586-2.292.586-4.063v-11.113h3.516V290h-3.145Zm8.672 0v-20.742h3.145v2.91a7.309 7.309 0 0 1 2.597-2.441c1.081-.625 2.312-.938 3.692-.938 1.536 0 2.793.319 3.769.957.99.638 1.687 1.53 2.09 2.676 1.641-2.422 3.776-3.633 6.406-3.633 2.058 0 3.64.573 4.747 1.719 1.106 1.133 1.66 2.884 1.66 5.254V290h-3.496v-13.066c0-1.407-.118-2.416-.352-3.028-.221-.625-.631-1.126-1.23-1.504-.599-.377-1.303-.566-2.11-.566-1.458 0-2.669.488-3.633 1.465-.963.963-1.445 2.513-1.445 4.648V290h-3.516v-13.477c0-1.562-.286-2.734-.859-3.515-.573-.781-1.51-1.172-2.812-1.172-.99 0-1.908.26-2.754.781-.834.521-1.439 1.283-1.817 2.285-.377 1.003-.566 2.448-.566 4.336V290h-3.516Zm33.34-24.59v-4.043h3.516v4.043h-3.516Zm0 24.59v-20.742h3.516V290h-3.516Zm8.887 0v-20.742h3.164v2.949c1.523-2.279 3.724-3.418 6.601-3.418 1.25 0 2.396.228 3.438.684 1.055.442 1.842 1.028 2.363 1.757.521.73.886 1.596 1.094 2.598.13.651.195 1.79.195 3.418V290h-3.515v-12.617c0-1.432-.137-2.5-.411-3.203-.273-.716-.761-1.283-1.464-1.7-.69-.429-1.504-.644-2.442-.644-1.497 0-2.793.475-3.886 1.426-1.081.95-1.622 2.754-1.622 5.41V290h-3.515Zm22.285-24.59v-4.043h3.516v4.043h-3.516Zm0 24.59v-20.742h3.516V290h-3.516Zm22.48 0v-3.047c-1.614 2.344-3.808 3.516-6.582 3.516a8.467 8.467 0 0 1-3.437-.703c-1.055-.469-1.843-1.055-2.363-1.758-.508-.716-.866-1.589-1.075-2.617-.143-.69-.214-1.784-.214-3.282v-12.851h3.515v11.504c0 1.836.072 3.073.215 3.711.221.924.69 1.653 1.406 2.187.716.521 1.602.781 2.657.781a5.845 5.845 0 0 0 2.968-.8c.925-.547 1.576-1.283 1.953-2.207.391-.938.586-2.292.586-4.063v-11.113h3.516V290h-3.145Zm8.672 0v-20.742h3.145v2.91a7.309 7.309 0 0 1 2.597-2.441c1.081-.625 2.312-.938 3.692-.938 1.536 0 2.793.319 3.769.957.99.638 1.687 1.53 2.09 2.676 1.641-2.422 3.776-3.633 6.407-3.633 2.057 0 3.639.573 4.746 1.719 1.106 1.133 1.66 2.884 1.66 5.254V290h-3.496v-13.066c0-1.407-.118-2.416-.352-3.028-.221-.625-.631-1.126-1.23-1.504-.599-.377-1.302-.566-2.11-.566-1.458 0-2.669.488-3.633 1.465-.963.963-1.445 2.513-1.445 4.648V290h-3.516v-13.477c0-1.562-.286-2.734-.859-3.515-.573-.781-1.51-1.172-2.812-1.172-.99 0-1.908.26-2.754.781-.834.521-1.439 1.283-1.817 2.285-.377 1.003-.566 2.448-.566 4.336V290h-3.516Z"/></svg>