<?xml version="1.0" standalone="no"?>
<!DOCTYPE svg PUBLIC "-//W3C//DTD SVG 20010904//EN"
 "http://www.w3.org/TR/2001/REC-SVG-20010904/DTD/svg10.dtd">
<svg version="1.0" xmlns="http://www.w3.org/2000/svg"
 width="256.000000pt" height="256.000000pt" viewBox="0 0 256.000000 256.000000"
 preserveAspectRatio="xMidYMid meet">
<metadata>
Created by potrace 1.14, written by Peter Selinger 2001-2017
</metadata>
<g transform="translate(0.000000,256.000000) scale(0.100000,-0.100000)"
fill="#000000" stroke="none">
<path d="M426 2444 c-93 -29 -178 -101 -218 -183 -13 -25 -23 -48 -23 -51 0
-3 -4 -11 -8 -17 -5 -7 -6 -13 -3 -13 3 0 1 -11 -4 -25 -11 -30 -6 -31 22 -5
46 42 120 32 145 -21 10 -20 13 -151 14 -530 1 -561 -1 -546 70 -631 93 -112
271 -129 383 -36 45 37 81 91 95 144 6 23 11 178 12 371 0 211 5 331 11 327 5
-3 18 2 28 11 38 34 120 12 139 -38 5 -12 8 -240 8 -507 0 -267 3 -502 7 -522
13 -80 82 -164 166 -201 67 -30 161 -28 225 6 63 31 104 73 136 135 24 47 24
50 25 358 1 305 2 312 23 333 30 30 61 39 98 29 69 -18 67 -4 68 -572 l1 -511
26 -56 c31 -69 99 -128 171 -150 137 -43 280 25 340 160 20 44 21 64 20 566 0
286 -3 536 -7 555 -37 190 -251 331 -436 287 -67 -16 -110 -31 -110 -37 0 -4
-15 -15 -32 -25 -55 -29 -129 -130 -143 -195 -4 -17 -9 -29 -12 -26 -3 3 -7
99 -8 213 -2 179 -5 215 -21 255 -71 174 -242 270 -421 237 -120 -23 -233
-118 -275 -232 l-23 -62 -6 195 c-3 107 -9 204 -13 215 -37 86 -53 111 -97
155 -71 71 -144 102 -244 106 -53 3 -96 -1 -129 -12z"/>
</g>
</svg>
